<svg width="196" height="144" viewBox="0 0 196 144" fill="none" xmlns="http://www.w3.org/2000/svg">
<rect width="196" height="144" rx="20" fill="url(#paint0_linear_59_29)" fill-opacity="0.7"/>
<path d="M38.9 110C38.2333 110 37.6333 109.767 37.1 109.3C36.6333 108.833 36.4 108.233 36.4 107.5V42.5C36.4 41.7667 36.6333 41.1667 37.1 40.7C37.6333 40.2333 38.2333 40 38.9 40H48.2C49.2 40 49.9333 40.2667 50.4 40.8C50.9333 41.3333 51.3 41.7333 51.5 42L69.9 75.9L88.5 42C88.6333 41.7333 88.9333 41.3333 89.4 40.8C89.9333 40.2667 90.7 40 91.7 40H101C101.733 40 102.333 40.2333 102.8 40.7C103.267 41.1667 103.5 41.7667 103.5 42.5V107.5C103.5 108.233 103.267 108.833 102.8 109.3C102.333 109.767 101.733 110 101 110H90.8C90.1333 110 89.5667 109.767 89.1 109.3C88.6333 108.833 88.4 108.233 88.4 107.5V67.1L75.7 90.9C75.3667 91.5 74.9333 92.0333 74.4 92.5C73.8667 92.9667 73.1667 93.2 72.3 93.2H67.6C66.7333 93.2 66.0333 92.9667 65.5 92.5C64.9667 92.0333 64.5333 91.5 64.2 90.9L51.5 67.1V107.5C51.5 108.233 51.2667 108.833 50.8 109.3C50.3333 109.767 49.7667 110 49.1 110H38.9Z" fill="white"/>
<path d="M118.5 110C117.767 110 117.167 109.767 116.7 109.3C116.233 108.833 116 108.233 116 107.5V42.5C116 41.7667 116.233 41.1667 116.7 40.7C117.167 40.2333 117.767 40 118.5 40H146.5C152.033 40 156.833 40.8667 160.9 42.6C165.033 44.2667 168.233 46.8 170.5 50.2C172.833 53.6 174 57.9 174 63.1C174 68.2333 172.833 72.4667 170.5 75.8C168.233 79.1333 165.033 81.6 160.9 83.2C156.833 84.8 152.033 85.6 146.5 85.6H134.6V107.5C134.6 108.233 134.333 108.833 133.8 109.3C133.333 109.767 132.733 110 132 110H118.5ZM134.3 71.8H146C148.867 71.8 151.133 71.0667 152.8 69.6C154.533 68.1333 155.4 65.9 155.4 62.9C155.4 60.3667 154.667 58.2333 153.2 56.5C151.733 54.7667 149.333 53.9 146 53.9H134.3V71.8Z" fill="white"/>
<defs>
<linearGradient id="paint0_linear_59_29" x1="98" y1="0" x2="98" y2="144" gradientUnits="userSpaceOnUse">
<stop stop-color="#8F00FF"/>
<stop offset="1" stop-color="#3870FF"/>
</linearGradient>
</defs>
</svg>
