<svg width="183" height="54" viewBox="0 0 183 54" fill="none" xmlns="http://www.w3.org/2000/svg">
<rect x="94" width="89" height="54" rx="20" fill="url(#paint0_linear_5_8)" fill-opacity="0.6"/>
<path d="M4.4 40C4.13333 40 3.90667 39.92 3.72 39.76C3.56 39.5733 3.48 39.3467 3.48 39.08V12.96C3.48 12.6667 3.56 12.44 3.72 12.28C3.90667 12.0933 4.13333 12 4.4 12H6.4C6.72 12 6.96 12.08 7.12 12.24C7.28 12.4 7.37333 12.5333 7.4 12.64L15.88 28.8L24.4 12.64C24.4533 12.5333 24.5467 12.4 24.68 12.24C24.84 12.08 25.08 12 25.4 12H27.36C27.6533 12 27.88 12.0933 28.04 12.28C28.2267 12.44 28.32 12.6667 28.32 12.96V39.08C28.32 39.3467 28.2267 39.5733 28.04 39.76C27.88 39.92 27.6533 40 27.36 40H25.4C25.1333 40 24.9067 39.92 24.72 39.76C24.56 39.5733 24.48 39.3467 24.48 39.08V19.4L17.8 32.44C17.6933 32.7067 17.5333 32.92 17.32 33.08C17.1067 33.2133 16.84 33.28 16.52 33.28H15.28C14.9333 33.28 14.6533 33.2133 14.44 33.08C14.2533 32.92 14.0933 32.7067 13.96 32.44L7.28 19.4V39.08C7.28 39.3467 7.18667 39.5733 7 39.76C6.84 39.92 6.62667 40 6.36 40H4.4ZM42.9978 40.4C40.2511 40.4 38.0645 39.56 36.4378 37.88C34.8111 36.1733 33.9178 33.8533 33.7578 30.92C33.7311 30.5733 33.7178 30.1333 33.7178 29.6C33.7178 29.04 33.7311 28.5867 33.7578 28.24C33.8645 26.3467 34.3045 24.6933 35.0778 23.28C35.8511 21.84 36.9045 20.7333 38.2378 19.96C39.5978 19.1867 41.1845 18.8 42.9978 18.8C45.0245 18.8 46.7178 19.2267 48.0778 20.08C49.4645 20.9333 50.5178 22.1467 51.2378 23.72C51.9578 25.2933 52.3178 27.1333 52.3178 29.24V29.92C52.3178 30.2133 52.2245 30.44 52.0378 30.6C51.8778 30.76 51.6645 30.84 51.3978 30.84H37.5578C37.5578 30.8667 37.5578 30.92 37.5578 31C37.5578 31.08 37.5578 31.1467 37.5578 31.2C37.6111 32.2933 37.8511 33.32 38.2778 34.28C38.7045 35.2133 39.3178 35.9733 40.1178 36.56C40.9178 37.1467 41.8778 37.44 42.9978 37.44C43.9578 37.44 44.7578 37.2933 45.3978 37C46.0378 36.7067 46.5578 36.3867 46.9578 36.04C47.3578 35.6667 47.6245 35.3867 47.7578 35.2C47.9978 34.8533 48.1845 34.6533 48.3178 34.6C48.4511 34.52 48.6645 34.48 48.9578 34.48H50.8778C51.1445 34.48 51.3578 34.56 51.5178 34.72C51.7045 34.8533 51.7845 35.0533 51.7578 35.32C51.7311 35.72 51.5178 36.2133 51.1178 36.8C50.7178 37.36 50.1445 37.92 49.3978 38.48C48.6511 39.04 47.7445 39.5067 46.6778 39.88C45.6111 40.2267 44.3845 40.4 42.9978 40.4ZM37.5578 28.08H48.5178V27.96C48.5178 26.76 48.2911 25.6933 47.8378 24.76C47.4111 23.8267 46.7845 23.0933 45.9578 22.56C45.1311 22 44.1445 21.72 42.9978 21.72C41.8511 21.72 40.8645 22 40.0378 22.56C39.2378 23.0933 38.6245 23.8267 38.1978 24.76C37.7711 25.6933 37.5578 26.76 37.5578 27.96V28.08ZM65.1034 40C63.6101 40 62.3968 39.72 61.4634 39.16C60.5301 38.5733 59.8501 37.76 59.4234 36.72C58.9968 35.6533 58.7834 34.4 58.7834 32.96V22.4H55.6634C55.3968 22.4 55.1701 22.32 54.9834 22.16C54.8234 21.9733 54.7434 21.7467 54.7434 21.48V20.12C54.7434 19.8533 54.8234 19.64 54.9834 19.48C55.1701 19.2933 55.3968 19.2 55.6634 19.2H58.7834V12.52C58.7834 12.2533 58.8634 12.04 59.0234 11.88C59.2101 11.6933 59.4368 11.6 59.7034 11.6H61.5834C61.8501 11.6 62.0634 11.6933 62.2234 11.88C62.4101 12.04 62.5034 12.2533 62.5034 12.52V19.2H67.4634C67.7301 19.2 67.9434 19.2933 68.1034 19.48C68.2901 19.64 68.3834 19.8533 68.3834 20.12V21.48C68.3834 21.7467 68.2901 21.9733 68.1034 22.16C67.9434 22.32 67.7301 22.4 67.4634 22.4H62.5034V32.68C62.5034 33.9333 62.7168 34.92 63.1434 35.64C63.5701 36.36 64.3301 36.72 65.4234 36.72H67.8634C68.1301 36.72 68.3434 36.8133 68.5034 37C68.6901 37.16 68.7834 37.3733 68.7834 37.64V39.08C68.7834 39.3467 68.6901 39.5733 68.5034 39.76C68.3434 39.92 68.1301 40 67.8634 40H65.1034ZM78.4084 40.4C77.0751 40.4 75.8618 40.1333 74.7684 39.6C73.6751 39.0667 72.7951 38.3467 72.1284 37.44C71.4618 36.5333 71.1284 35.5067 71.1284 34.36C71.1284 32.52 71.8751 31.0533 73.3684 29.96C74.8618 28.8667 76.8084 28.1467 79.2084 27.8L85.1684 26.96V25.8C85.1684 24.52 84.7951 23.52 84.0484 22.8C83.3284 22.08 82.1418 21.72 80.4884 21.72C79.2884 21.72 78.3151 21.96 77.5684 22.44C76.8484 22.92 76.3418 23.5333 76.0484 24.28C75.8884 24.68 75.6084 24.88 75.2084 24.88H73.4084C73.1151 24.88 72.8884 24.8 72.7284 24.64C72.5951 24.4533 72.5284 24.24 72.5284 24C72.5284 23.6 72.6751 23.1067 72.9684 22.52C73.2884 21.9333 73.7684 21.36 74.4084 20.8C75.0484 20.24 75.8618 19.7733 76.8484 19.4C77.8618 19 79.0884 18.8 80.5284 18.8C82.1284 18.8 83.4751 19.0133 84.5684 19.44C85.6618 19.84 86.5151 20.3867 87.1284 21.08C87.7684 21.7733 88.2218 22.56 88.4884 23.44C88.7818 24.32 88.9284 25.2133 88.9284 26.12V39.08C88.9284 39.3467 88.8351 39.5733 88.6484 39.76C88.4884 39.92 88.2751 40 88.0084 40H86.1684C85.8751 40 85.6484 39.92 85.4884 39.76C85.3284 39.5733 85.2484 39.3467 85.2484 39.08V37.36C84.9018 37.84 84.4351 38.32 83.8484 38.8C83.2618 39.2533 82.5284 39.64 81.6484 39.96C80.7684 40.2533 79.6884 40.4 78.4084 40.4ZM79.2484 37.4C80.3418 37.4 81.3418 37.1733 82.2484 36.72C83.1551 36.24 83.8618 35.5067 84.3684 34.52C84.9018 33.5333 85.1684 32.2933 85.1684 30.8V29.68L80.5284 30.36C78.6351 30.6267 77.2084 31.08 76.2484 31.72C75.2884 32.3333 74.8084 33.12 74.8084 34.08C74.8084 34.8267 75.0218 35.4533 75.4484 35.96C75.9018 36.44 76.4618 36.8 77.1284 37.04C77.8218 37.28 78.5284 37.4 79.2484 37.4Z" fill="url(#paint1_linear_5_8)"/>
<path d="M105.923 40C105.63 40 105.403 39.92 105.243 39.76C105.083 39.5733 105.003 39.3467 105.003 39.08V12.96C105.003 12.6667 105.083 12.44 105.243 12.28C105.403 12.0933 105.63 12 105.923 12H116.083C118.057 12 119.763 12.32 121.203 12.96C122.67 13.6 123.803 14.56 124.603 15.84C125.403 17.0933 125.803 18.6667 125.803 20.56C125.803 22.4533 125.403 24.0267 124.603 25.28C123.803 26.5333 122.67 27.48 121.203 28.12C119.763 28.76 118.057 29.08 116.083 29.08H109.003V39.08C109.003 39.3467 108.91 39.5733 108.723 39.76C108.563 39.92 108.337 40 108.043 40H105.923ZM108.963 25.72H115.883C117.857 25.72 119.337 25.28 120.323 24.4C121.31 23.52 121.803 22.24 121.803 20.56C121.803 18.9067 121.323 17.6267 120.363 16.72C119.403 15.8133 117.91 15.36 115.883 15.36H108.963V25.72ZM135.557 40.4C134.224 40.4 133.01 40.1333 131.917 39.6C130.824 39.0667 129.944 38.3467 129.277 37.44C128.61 36.5333 128.277 35.5067 128.277 34.36C128.277 32.52 129.024 31.0533 130.517 29.96C132.01 28.8667 133.957 28.1467 136.357 27.8L142.317 26.96V25.8C142.317 24.52 141.944 23.52 141.197 22.8C140.477 22.08 139.29 21.72 137.637 21.72C136.437 21.72 135.464 21.96 134.717 22.44C133.997 22.92 133.49 23.5333 133.197 24.28C133.037 24.68 132.757 24.88 132.357 24.88H130.557C130.264 24.88 130.037 24.8 129.877 24.64C129.744 24.4533 129.677 24.24 129.677 24C129.677 23.6 129.824 23.1067 130.117 22.52C130.437 21.9333 130.917 21.36 131.557 20.8C132.197 20.24 133.01 19.7733 133.997 19.4C135.01 19 136.237 18.8 137.677 18.8C139.277 18.8 140.624 19.0133 141.717 19.44C142.81 19.84 143.664 20.3867 144.277 21.08C144.917 21.7733 145.37 22.56 145.637 23.44C145.93 24.32 146.077 25.2133 146.077 26.12V39.08C146.077 39.3467 145.984 39.5733 145.797 39.76C145.637 39.92 145.424 40 145.157 40H143.317C143.024 40 142.797 39.92 142.637 39.76C142.477 39.5733 142.397 39.3467 142.397 39.08V37.36C142.05 37.84 141.584 38.32 140.997 38.8C140.41 39.2533 139.677 39.64 138.797 39.96C137.917 40.2533 136.837 40.4 135.557 40.4ZM136.397 37.4C137.49 37.4 138.49 37.1733 139.397 36.72C140.304 36.24 141.01 35.5067 141.517 34.52C142.05 33.5333 142.317 32.2933 142.317 30.8V29.68L137.677 30.36C135.784 30.6267 134.357 31.08 133.397 31.72C132.437 32.3333 131.957 33.12 131.957 34.08C131.957 34.8267 132.17 35.4533 132.597 35.96C133.05 36.44 133.61 36.8 134.277 37.04C134.97 37.28 135.677 37.4 136.397 37.4ZM155.038 47.6C154.824 47.6 154.638 47.52 154.478 47.36C154.318 47.2 154.238 47.0133 154.238 46.8C154.238 46.6933 154.251 46.5867 154.278 46.48C154.304 46.3733 154.358 46.24 154.438 46.08L157.518 38.76L149.878 20.72C149.744 20.4 149.678 20.1733 149.678 20.04C149.678 19.8 149.758 19.6 149.918 19.44C150.078 19.28 150.278 19.2 150.518 19.2H152.478C152.744 19.2 152.958 19.2667 153.118 19.4C153.278 19.5333 153.384 19.6933 153.438 19.88L159.518 34.44L165.758 19.88C165.838 19.6933 165.944 19.5333 166.078 19.4C166.238 19.2667 166.464 19.2 166.758 19.2H168.637C168.877 19.2 169.078 19.28 169.238 19.44C169.398 19.6 169.478 19.7867 169.478 20C169.478 20.1333 169.411 20.3733 169.278 20.72L157.918 46.92C157.838 47.1067 157.718 47.2667 157.558 47.4C157.424 47.5333 157.211 47.6 156.918 47.6H155.038Z" fill="white"/>
<defs>
<linearGradient id="paint0_linear_5_8" x1="138.5" y1="0" x2="138.5" y2="54" gradientUnits="userSpaceOnUse">
<stop stop-color="#8F00FF"/>
<stop offset="1" stop-color="#3870FF"/>
</linearGradient>
<linearGradient id="paint1_linear_5_8" x1="90.5" y1="3" x2="90.5" y2="50" gradientUnits="userSpaceOnUse">
<stop stop-color="#3870FF"/>
<stop offset="1" stop-color="#8F00FF"/>
</linearGradient>
</defs>
</svg>
