<svg width="454" height="124" viewBox="0 0 454 124" fill="none" xmlns="http://www.w3.org/2000/svg">
<rect x="234" y="5" width="220" height="119" rx="20" fill="url(#paint0_linear_5_5)" fill-opacity="0.6"/>
<path d="M11 94C10.3333 94 9.76667 93.8 9.3 93.4C8.9 92.9333 8.7 92.3667 8.7 91.7V26.4C8.7 25.6667 8.9 25.1 9.3 24.7C9.76667 24.2333 10.3333 24 11 24H16C16.8 24 17.4 24.2 17.8 24.6C18.2 25 18.4333 25.3333 18.5 25.6L39.7 66L61 25.6C61.1333 25.3333 61.3667 25 61.7 24.6C62.1 24.2 62.7 24 63.5 24H68.4C69.1333 24 69.7 24.2333 70.1 24.7C70.5667 25.1 70.8 25.6667 70.8 26.4V91.7C70.8 92.3667 70.5667 92.9333 70.1 93.4C69.7 93.8 69.1333 94 68.4 94H63.5C62.8333 94 62.2667 93.8 61.8 93.4C61.4 92.9333 61.2 92.3667 61.2 91.7V42.5L44.5 75.1C44.2333 75.7667 43.8333 76.3 43.3 76.7C42.7667 77.0333 42.1 77.2 41.3 77.2H38.2C37.3333 77.2 36.6333 77.0333 36.1 76.7C35.6333 76.3 35.2333 75.7667 34.9 75.1L18.2 42.5V91.7C18.2 92.3667 17.9667 92.9333 17.5 93.4C17.1 93.8 16.5667 94 15.9 94H11ZM107.495 95C100.628 95 95.1612 92.9 91.0945 88.7C87.0279 84.4333 84.7945 78.6333 84.3945 71.3C84.3279 70.4333 84.2945 69.3333 84.2945 68C84.2945 66.6 84.3279 65.4667 84.3945 64.6C84.6612 59.8667 85.7612 55.7333 87.6945 52.2C89.6279 48.6 92.2612 45.8333 95.5945 43.9C98.9945 41.9667 102.961 41 107.495 41C112.561 41 116.795 42.0667 120.195 44.2C123.661 46.3333 126.295 49.3667 128.095 53.3C129.895 57.2333 130.795 61.8333 130.795 67.1V68.8C130.795 69.5333 130.561 70.1 130.095 70.5C129.695 70.9 129.161 71.1 128.495 71.1H93.8945C93.8945 71.1667 93.8945 71.3 93.8945 71.5C93.8945 71.7 93.8945 71.8667 93.8945 72C94.0279 74.7333 94.6279 77.3 95.6945 79.7C96.7612 82.0333 98.2945 83.9333 100.295 85.4C102.295 86.8667 104.695 87.6 107.495 87.6C109.895 87.6 111.895 87.2333 113.495 86.5C115.095 85.7667 116.395 84.9667 117.395 84.1C118.395 83.1667 119.061 82.4667 119.395 82C119.995 81.1333 120.461 80.6333 120.795 80.5C121.128 80.3 121.661 80.2 122.395 80.2H127.195C127.861 80.2 128.395 80.4 128.795 80.8C129.261 81.1333 129.461 81.6333 129.395 82.3C129.328 83.3 128.795 84.5333 127.795 86C126.795 87.4 125.361 88.8 123.495 90.2C121.628 91.6 119.361 92.7667 116.695 93.7C114.028 94.5667 110.961 95 107.495 95ZM93.8945 64.2H121.295V63.9C121.295 60.9 120.728 58.2333 119.595 55.9C118.528 53.5667 116.961 51.7333 114.895 50.4C112.828 49 110.361 48.3 107.495 48.3C104.628 48.3 102.161 49 100.095 50.4C98.0945 51.7333 96.5612 53.5667 95.4945 55.9C94.4279 58.2333 93.8945 60.9 93.8945 63.9V64.2ZM162.759 94C159.025 94 155.992 93.3 153.659 91.9C151.325 90.4333 149.625 88.4 148.559 85.8C147.492 83.1333 146.959 80 146.959 76.4V50H139.159C138.492 50 137.925 49.8 137.459 49.4C137.059 48.9333 136.859 48.3667 136.859 47.7V44.3C136.859 43.6333 137.059 43.1 137.459 42.7C137.925 42.2333 138.492 42 139.159 42H146.959V25.3C146.959 24.6333 147.159 24.1 147.559 23.7C148.025 23.2333 148.592 23 149.259 23H153.959C154.625 23 155.159 23.2333 155.559 23.7C156.025 24.1 156.259 24.6333 156.259 25.3V42H168.659C169.325 42 169.859 42.2333 170.259 42.7C170.725 43.1 170.959 43.6333 170.959 44.3V47.7C170.959 48.3667 170.725 48.9333 170.259 49.4C169.859 49.8 169.325 50 168.659 50H156.259V75.7C156.259 78.8333 156.792 81.3 157.859 83.1C158.925 84.9 160.825 85.8 163.559 85.8H169.659C170.325 85.8 170.859 86.0333 171.259 86.5C171.725 86.9 171.959 87.4333 171.959 88.1V91.7C171.959 92.3667 171.725 92.9333 171.259 93.4C170.859 93.8 170.325 94 169.659 94H162.759ZM196.021 95C192.688 95 189.654 94.3333 186.921 93C184.188 91.6667 181.988 89.8667 180.321 87.6C178.654 85.3333 177.821 82.7667 177.821 79.9C177.821 75.3 179.688 71.6333 183.421 68.9C187.154 66.1667 192.021 64.3667 198.021 63.5L212.921 61.4V58.5C212.921 55.3 211.988 52.8 210.121 51C208.321 49.2 205.354 48.3 201.221 48.3C198.221 48.3 195.788 48.9 193.921 50.1C192.121 51.3 190.854 52.8333 190.121 54.7C189.721 55.7 189.021 56.2 188.021 56.2H183.521C182.788 56.2 182.221 56 181.821 55.6C181.488 55.1333 181.321 54.6 181.321 54C181.321 53 181.688 51.7667 182.421 50.3C183.221 48.8333 184.421 47.4 186.021 46C187.621 44.6 189.654 43.4333 192.121 42.5C194.654 41.5 197.721 41 201.321 41C205.321 41 208.688 41.5333 211.421 42.6C214.154 43.6 216.288 44.9667 217.821 46.7C219.421 48.4333 220.554 50.4 221.221 52.6C221.954 54.8 222.321 57.0333 222.321 59.3V91.7C222.321 92.3667 222.088 92.9333 221.621 93.4C221.221 93.8 220.688 94 220.021 94H215.421C214.688 94 214.121 93.8 213.721 93.4C213.321 92.9333 213.121 92.3667 213.121 91.7V87.4C212.254 88.6 211.088 89.8 209.621 91C208.154 92.1333 206.321 93.1 204.121 93.9C201.921 94.6333 199.221 95 196.021 95ZM198.121 87.5C200.854 87.5 203.354 86.9333 205.621 85.8C207.888 84.6 209.654 82.7667 210.921 80.3C212.254 77.8333 212.921 74.7333 212.921 71V68.2L201.321 69.9C196.588 70.5667 193.021 71.7 190.621 73.3C188.221 74.8333 187.021 76.8 187.021 79.2C187.021 81.0667 187.554 82.6333 188.621 83.9C189.754 85.1 191.154 86 192.821 86.6C194.554 87.2 196.321 87.5 198.121 87.5Z" fill="url(#paint1_linear_5_5)"/>
<path d="M264.809 94C264.075 94 263.509 93.8 263.109 93.4C262.709 92.9333 262.509 92.3667 262.509 91.7V26.4C262.509 25.6667 262.709 25.1 263.109 24.7C263.509 24.2333 264.075 24 264.809 24H290.209C295.142 24 299.409 24.8 303.009 26.4C306.675 28 309.509 30.4 311.509 33.6C313.509 36.7333 314.509 40.6667 314.509 45.4C314.509 50.1333 313.509 54.0667 311.509 57.2C309.509 60.3333 306.675 62.7 303.009 64.3C299.409 65.9 295.142 66.7 290.209 66.7H272.509V91.7C272.509 92.3667 272.275 92.9333 271.809 93.4C271.409 93.8 270.842 94 270.109 94H264.809ZM272.409 58.3H289.709C294.642 58.3 298.342 57.2 300.809 55C303.275 52.8 304.509 49.6 304.509 45.4C304.509 41.2667 303.309 38.0667 300.909 35.8C298.509 33.5333 294.775 32.4 289.709 32.4H272.409V58.3ZM338.892 95C335.559 95 332.526 94.3333 329.792 93C327.059 91.6667 324.859 89.8667 323.192 87.6C321.526 85.3333 320.692 82.7667 320.692 79.9C320.692 75.3 322.559 71.6333 326.292 68.9C330.026 66.1667 334.892 64.3667 340.892 63.5L355.792 61.4V58.5C355.792 55.3 354.859 52.8 352.992 51C351.192 49.2 348.226 48.3 344.092 48.3C341.092 48.3 338.659 48.9 336.792 50.1C334.992 51.3 333.726 52.8333 332.992 54.7C332.592 55.7 331.892 56.2 330.892 56.2H326.392C325.659 56.2 325.092 56 324.692 55.6C324.359 55.1333 324.192 54.6 324.192 54C324.192 53 324.559 51.7667 325.292 50.3C326.092 48.8333 327.292 47.4 328.892 46C330.492 44.6 332.526 43.4333 334.992 42.5C337.526 41.5 340.592 41 344.192 41C348.192 41 351.559 41.5333 354.292 42.6C357.026 43.6 359.159 44.9667 360.692 46.7C362.292 48.4333 363.426 50.4 364.092 52.6C364.826 54.8 365.192 57.0333 365.192 59.3V91.7C365.192 92.3667 364.959 92.9333 364.492 93.4C364.092 93.8 363.559 94 362.892 94H358.292C357.559 94 356.992 93.8 356.592 93.4C356.192 92.9333 355.992 92.3667 355.992 91.7V87.4C355.126 88.6 353.959 89.8 352.492 91C351.026 92.1333 349.192 93.1 346.992 93.9C344.792 94.6333 342.092 95 338.892 95ZM340.992 87.5C343.726 87.5 346.226 86.9333 348.492 85.8C350.759 84.6 352.526 82.7667 353.792 80.3C355.126 77.8333 355.792 74.7333 355.792 71V68.2L344.192 69.9C339.459 70.5667 335.892 71.7 333.492 73.3C331.092 74.8333 329.892 76.8 329.892 79.2C329.892 81.0667 330.426 82.6333 331.492 83.9C332.626 85.1 334.026 86 335.692 86.6C337.426 87.2 339.192 87.5 340.992 87.5ZM387.594 113C387.06 113 386.594 112.8 386.194 112.4C385.794 112 385.594 111.533 385.594 111C385.594 110.733 385.627 110.467 385.694 110.2C385.76 109.933 385.894 109.6 386.094 109.2L393.794 90.9L374.694 45.8C374.36 45 374.194 44.4333 374.194 44.1C374.194 43.5 374.394 43 374.794 42.6C375.194 42.2 375.694 42 376.294 42H381.194C381.86 42 382.394 42.1667 382.794 42.5C383.194 42.8333 383.46 43.2333 383.594 43.7L398.794 80.1L414.394 43.7C414.594 43.2333 414.86 42.8333 415.194 42.5C415.594 42.1667 416.16 42 416.894 42H421.594C422.194 42 422.694 42.2 423.094 42.6C423.494 43 423.694 43.4667 423.694 44C423.694 44.3333 423.527 44.9333 423.194 45.8L394.794 111.3C394.594 111.767 394.294 112.167 393.894 112.5C393.56 112.833 393.027 113 392.294 113H387.594Z" fill="white"/>
<defs>
<linearGradient id="paint0_linear_5_5" x1="344" y1="5" x2="344" y2="124" gradientUnits="userSpaceOnUse">
<stop stop-color="#8F00FF"/>
<stop offset="1" stop-color="#3870FF"/>
</linearGradient>
<linearGradient id="paint1_linear_5_5" x1="227" y1="0" x2="227" y2="119" gradientUnits="userSpaceOnUse">
<stop stop-color="#3870FF"/>
<stop offset="1" stop-color="#8F00FF"/>
</linearGradient>
</defs>
</svg>
